<svg width="28" height="28" viewBox="0 0 28 28" fill="none" xmlns="http://www.w3.org/2000/svg">
    <path d="M9.5 13C12.2614 13 14.5 10.7614 14.5 8C14.5 5.23858 12.2614 3 9.5 3C6.73858 3 4.5 5.23858 4.5 8C4.5 10.7614 6.73858 13 9.5 13Z" stroke="white" stroke-width="2" stroke-linejoin="round"/>
    <path d="M1.75 24C2.53305 19.9439 5.63669 17 9.49998 17C13.3633 17 16.4669 19.9439 17.25 24" stroke="white" stroke-width="2" stroke-linecap="round"/>
    <path d="M19 12C21.2091 12 23 10.2091 23 8C23 5.79086 21.2091 4 19 4" stroke="white" stroke-width="2" stroke-linecap="round"/>
    <path d="M18.5 17C22.1621 17.236 25.0652 19.9498 25.75 24" stroke="white" stroke-width="2" stroke-linecap="round"/>
</svg>
